<?xml version="1.0" encoding="utf-8"?><svg xml:space="preserve" viewBox="0 0 100 100" y="0" x="0" xmlns="http://www.w3.org/2000/svg" id="圖層_1" version="1.1" width="200px" height="200px" xmlns:xlink="http://www.w3.org/1999/xlink" style="width:100%;height:100%;background-size:initial;background-repeat-y:initial;background-repeat-x:initial;background-position-y:initial;background-position-x:initial;background-origin:initial;background-image:initial;background-color:rgba(255, 255, 255, 0);background-clip:initial;background-attachment:initial;animation-play-state:paused" ><g class="ldl-scale" style="transform-origin:50% 50%;transform:rotate(0deg) scale(0.8, 0.8);animation-play-state:paused" ><path stroke-miterlimit="10" stroke-width="5" stroke="#333" fill="#c33737" d="M77.253 77.353L56.222 59.665 35.191 77.353c-1.023.861-2.586.133-2.586-1.204V11.573c0-.869.704-1.573 1.573-1.573h44.087c.869 0 1.573.704 1.573 1.573v64.576c0 1.337-1.562 2.064-2.585 1.204z" style="stroke:rgb(51, 51, 51);fill:rgb(195, 55, 55);animation-play-state:paused" ></path>
<path stroke-miterlimit="10" stroke-width="5" stroke="#333" fill="#e15b64" d="M64.809 89.628L43.778 71.94 22.747 89.628c-1.023.861-2.586.133-2.586-1.204V23.848c0-.869.704-1.573 1.573-1.573h44.087c.869 0 1.573.704 1.573 1.573v64.576c.001 1.337-1.561 2.064-2.585 1.204z" style="stroke:rgb(51, 51, 51);fill:rgb(225, 91, 100);animation-play-state:paused" ></path>
<metadata xmlns:d="https://loading.io/stock/" style="animation-play-state:paused" ><d:name style="animation-play-state:paused" >tag</d:name>
<d:tags style="animation-play-state:paused" >label,flag,bookmark,favorite,collection,mark,tag,books</d:tags>
<d:license style="animation-play-state:paused" >by</d:license>
<d:slug style="animation-play-state:paused" >guy5bq</d:slug></metadata></g><!-- generated by https://loading.io/ --></svg>
